<svg xmlns="http://www.w3.org/2000/svg" xmlns:xlink="http://www.w3.org/1999/xlink" width="1300" zoomAndPan="magnify" viewBox="0 0 974.88 449.999984" height="600" preserveAspectRatio="xMidYMid meet" version="1.2"><defs><clipPath id="ab376d32d7"><path d="M 0 0.0273438 L 974.761719 0.0273438 L 974.761719 449.972656 L 0 449.972656 Z M 0 0.0273438 "/></clipPath><filter x="0%" y="0%" width="100%" filterUnits="objectBoundingBox" id="1b13f57c25" height="100%"><feColorMatrix values="0 0 0 0 1 0 0 0 0 1 0 0 0 0 1 0 0 0 1 0" type="matrix" in="SourceGraphic"/></filter><clipPath id="6f8ae00ff1"><path d="M 0 0.0273438 L 974.660156 0.0273438 L 974.660156 449.972656 L 0 449.972656 Z M 0 0.0273438 "/></clipPath><clipPath id="41746b069e"><rect x="0" width="975" y="0" height="450"/></clipPath></defs><g id="0f99a9bcb0"><g clip-rule="nonzero" clip-path="url(#ab376d32d7)"><path style=" stroke:none;fill-rule:nonzero;fill:#ffffff;fill-opacity:1;" d="M 0 0.0273438 L 974.878906 0.0273438 L 974.878906 449.972656 L 0 449.972656 Z M 0 0.0273438 "/><path style=" stroke:none;fill-rule:nonzero;fill:#1268b3;fill-opacity:1;" d="M 0 0.0273438 L 974.878906 0.0273438 L 974.878906 449.972656 L 0 449.972656 Z M 0 0.0273438 "/><g mask="url(#48171c5d26)" transform="matrix(1,0,0,1,0,0.000000000000045044)"><g clip-path="url(#41746b069e)"><g clip-rule="nonzero" clip-path="url(#6f8ae00ff1)"><path style=" stroke:none;fill-rule:nonzero;fill:#e3edf2;fill-opacity:1;" d="M 66.890625 209.511719 C 72.425781 209.511719 78.550781 208.65625 85.027344 206.914062 C 101.984375 202.359375 120.230469 201.554688 136.324219 200.84375 C 157.535156 199.90625 174.285156 199.167969 179.703125 190.277344 C 182.511719 185.671875 181.964844 179.292969 178.039062 170.785156 C 171.457031 156.523438 160.59375 149.40625 144.828125 149.023438 C 131.1875 148.691406 115.789062 153.347656 100.898438 157.84375 C 92.4375 160.402344 84.445312 162.820312 76.992188 164.28125 C 66.867188 166.265625 58.515625 169.421875 52.164062 173.667969 C 46.445312 177.492188 42.605469 182.082031 41.066406 186.941406 C 39.363281 192.320312 40.644531 197.765625 44.589844 201.890625 C 49.398438 206.917969 57.253906 209.511719 66.890625 209.511719 Z M 43.558594 187.730469 C 46.570312 178.230469 59.257812 170.421875 77.496094 166.84375 C 85.074219 165.359375 93.128906 162.925781 101.65625 160.347656 C 115.863281 156.054688 130.535156 151.621094 143.445312 151.621094 C 143.886719 151.621094 144.328125 151.625 144.765625 151.636719 C 159.636719 151.996094 169.457031 158.429688 175.664062 171.878906 C 179.199219 179.539062 179.789062 185.109375 177.472656 188.917969 C 172.78125 196.621094 155.832031 197.367188 136.210938 198.230469 C 119.980469 198.949219 101.585938 199.757812 84.347656 204.390625 C 75.550781 206.753906 67.285156 207.460938 60.441406 206.429688 C 54.410156 205.523438 49.582031 203.328125 46.476562 200.082031 C 43.167969 196.621094 42.128906 192.234375 43.558594 187.730469 Z M -1.949219 227.367188 C -3.210938 226.773438 -4.382812 226.078125 -5.46875 225.308594 L -5.46875 222.003906 C -1.359375 225.582031 4.59375 227.539062 11.707031 227.539062 C 14.71875 227.539062 17.9375 227.191406 21.308594 226.46875 C 36.734375 223.171875 53.714844 222.015625 70.683594 222.015625 C 94.183594 222.015625 117.664062 224.234375 137.003906 226.058594 C 149.425781 227.234375 160.152344 228.246094 167.785156 228.359375 C 183.726562 228.597656 205.738281 221.328125 216.363281 204.832031 C 224.605469 192.039062 224.4375 176.34375 215.867188 158.175781 C 211.753906 149.453125 202.546875 143.136719 188.507812 139.402344 C 177.082031 136.359375 162.488281 135.023438 145.136719 135.429688 C 115.652344 136.121094 88.054688 141.679688 87.464844 141.800781 C 43.34375 151.472656 19.488281 165.949219 7.246094 176.390625 C 1.933594 180.921875 -2.339844 185.703125 -5.46875 190.488281 L -5.46875 185.910156 C -2.5 181.988281 1.167969 178.136719 5.550781 174.402344 C 23.433594 159.148438 51.570312 146.992188 86.917969 139.246094 L 86.933594 139.242188 C 87.210938 139.183594 115.15625 133.519531 145.042969 132.820312 C 162.648438 132.40625 177.496094 133.769531 189.164062 136.871094 C 203.992188 140.8125 213.773438 147.605469 218.230469 157.058594 C 222.902344 166.957031 225.171875 176.347656 224.980469 184.964844 C 224.8125 192.742188 222.652344 199.898438 218.5625 206.246094 C 207.566406 223.3125 185.097656 230.976562 168.519531 230.976562 C 168.261719 230.976562 168.003906 230.976562 167.746094 230.972656 C 160.007812 230.859375 149.234375 229.839844 136.757812 228.660156 C 103.625 225.53125 58.246094 221.246094 21.855469 229.027344 C 12.707031 230.980469 4.476562 230.410156 -1.949219 227.367188 Z M -5.46875 254.953125 L -5.46875 252.289062 C 2.46875 252.488281 11.179688 251.636719 20.519531 249.667969 C 42.253906 245.085938 58.757812 243.371094 72.265625 243.371094 C 91.585938 243.371094 104.785156 246.875 118.429688 250.5 C 132.433594 254.21875 146.914062 258.0625 169.128906 258.34375 C 194.847656 258.671875 213.257812 252.28125 225.414062 238.804688 C 240.949219 221.582031 246.125 192.75 241.238281 150.664062 C 239.851562 138.730469 234.316406 129.242188 224.785156 122.464844 C 209.734375 111.765625 184.734375 107.480469 150.472656 109.726562 C 124.179688 111.453125 99.066406 116.5625 82.460938 120.257812 C 57.167969 125.882812 23.023438 139.234375 -5.46875 154.203125 L -5.46875 151.257812 C 22.980469 136.441406 56.761719 123.296875 81.894531 117.707031 C 98.582031 113.992188 123.828125 108.855469 150.300781 107.121094 C 185.179688 104.832031 210.746094 109.277344 226.300781 120.335938 C 236.457031 127.5625 242.359375 137.664062 243.832031 150.359375 C 248.816406 193.238281 243.425781 222.742188 227.355469 240.554688 C 221.042969 247.554688 212.929688 252.8125 203.238281 256.183594 C 194.097656 259.359375 183.234375 260.96875 170.925781 260.96875 C 170.320312 260.96875 169.710938 260.964844 169.097656 260.957031 C 146.558594 260.671875 131.917969 256.785156 117.761719 253.023438 C 94.882812 246.953125 73.277344 241.214844 21.058594 252.226562 C 11.5 254.242188 2.644531 255.144531 -5.46875 254.953125 Z M -5.46875 279.980469 L -5.46875 277.332031 C -4.867188 277.339844 -4.265625 277.351562 -3.660156 277.351562 C 5.328125 277.351562 14.597656 276.574219 23.980469 274.96875 C 37.621094 272.628906 48.265625 271.652344 56.878906 271.652344 C 76.484375 271.652344 85.597656 276.707031 95.660156 282.292969 C 105.335938 287.660156 116.300781 293.746094 139.386719 295.800781 C 190.785156 300.382812 232.605469 286.554688 254.113281 257.855469 C 281.195312 221.722656 291.984375 162.308594 255.039062 111.019531 C 240.511719 90.855469 214.394531 80.628906 177.414062 80.625 L 177.382812 80.625 C 146.125 80.625 113.253906 87.820312 91.496094 92.585938 C 89.632812 92.992188 87.847656 93.382812 86.140625 93.753906 C 70.058594 97.238281 31.417969 110.527344 -5.46875 126.753906 L -5.46875 123.902344 C 31.253906 107.816406 69.53125 94.675781 85.585938 91.199219 C 87.292969 90.832031 89.078125 90.441406 90.9375 90.03125 C 112.804688 85.246094 145.847656 78.011719 177.382812 78.011719 L 177.414062 78.011719 C 194.800781 78.011719 209.984375 80.242188 222.542969 84.640625 C 237.371094 89.832031 249.019531 98.191406 257.15625 109.492188 C 274.058594 132.953125 282.390625 160.269531 281.253906 188.492188 C 280.222656 214.058594 271.324219 239.25 256.207031 259.421875 C 245.953125 273.101562 230.5625 283.929688 211.695312 290.730469 C 195.898438 296.425781 178.070312 299.289062 158.507812 299.289062 C 152.230469 299.289062 145.777344 298.996094 139.152344 298.40625 C 115.515625 296.300781 104.292969 290.074219 94.394531 284.578125 C 80.335938 276.78125 68.195312 270.042969 24.421875 277.542969 C 14.296875 279.277344 4.273438 280.078125 -5.46875 279.980469 Z M 279.742188 299.367188 C 314.1875 271.941406 352.070312 202.015625 333.597656 142.058594 C 330.199219 131.03125 326.042969 121.03125 321.058594 112.011719 C 326.042969 120.996094 330.214844 130.984375 333.625 142.050781 C 337.917969 155.984375 339.371094 171.1875 337.945312 187.234375 C 336.644531 201.84375 333.007812 216.828125 327.132812 231.769531 C 316.421875 259.023438 298.710938 284.300781 279.757812 299.390625 C 276.085938 302.316406 272.195312 305.117188 268.109375 307.78125 C 272.089844 305.167969 275.976562 302.367188 279.742188 299.367188 Z M 32.539062 303.621094 C 22.171875 303.621094 9.820312 305.035156 -5.46875 308.398438 L -5.46875 308.375 C 9.144531 305.15625 21.617188 303.582031 32.601562 303.582031 C 56.15625 303.582031 69.238281 310.710938 84.386719 318.96875 C 99.652344 327.289062 116.953125 336.71875 148.972656 339.109375 C 152.527344 339.375 156.269531 339.507812 160.09375 339.507812 L 160.101562 339.507812 C 172.148438 339.507812 186.210938 338.136719 201.003906 335.007812 C 187.144531 337.980469 173.261719 339.542969 160.179688 339.542969 C 156.351562 339.542969 152.582031 339.40625 148.972656 339.136719 C 116.941406 336.746094 99.636719 327.3125 84.367188 318.992188 C 69.570312 310.925781 56.171875 303.621094 32.539062 303.621094 Z M -5.46875 83.234375 L -5.46875 83.199219 C 34.382812 69.585938 72.019531 59.40625 106.601562 52.90625 C 134.78125 47.613281 159.890625 44.953125 181.582031 44.953125 C 189.886719 44.953125 197.695312 45.339844 204.980469 46.121094 C 214.691406 47.164062 223.808594 48.632812 232.359375 50.53125 C 223.800781 48.648438 214.679688 47.191406 204.976562 46.152344 C 155.40625 40.835938 79.347656 54.3125 -5.46875 83.234375 Z M 83.132812 321.261719 C 98.628906 329.707031 116.195312 339.28125 148.78125 341.714844 C 152.453125 341.988281 156.289062 342.128906 160.179688 342.128906 C 178.1875 342.128906 197.683594 339.238281 216.5625 333.773438 C 241.402344 326.582031 263.808594 315.390625 281.367188 301.414062 C 300.660156 286.054688 318.667969 260.371094 329.539062 232.714844 C 335.503906 217.542969 339.199219 202.316406 340.519531 187.460938 C 341.976562 171.082031 340.488281 155.546875 336.09375 141.289062 C 327.238281 112.539062 313.289062 90.914062 293.453125 75.175781 C 271.71875 57.933594 242.867188 47.589844 205.253906 43.554688 C 178.695312 40.707031 145.339844 42.996094 106.121094 50.367188 C 71.664062 56.84375 34.191406 66.957031 -5.46875 80.46875 L -5.46875 83.199219 C 34.382812 69.585938 72.019531 59.40625 106.601562 52.90625 C 134.78125 47.613281 159.890625 44.953125 181.582031 44.953125 C 189.886719 44.953125 197.695312 45.339844 204.980469 46.121094 C 214.691406 47.164062 223.808594 48.632812 232.359375 50.53125 C 223.800781 48.648438 214.679688 47.191406 204.976562 46.152344 C 155.40625 40.835938 79.347656 54.3125 -5.46875 83.234375 L -5.46875 85.96875 C 79.332031 56.964844 155.328125 43.425781 204.699219 48.722656 C 274.390625 56.199219 313.382812 85.21875 331.128906 142.820312 C 349.261719 201.679688 312 270.382812 278.128906 297.347656 C 241.476562 326.527344 193.128906 336.925781 160.101562 336.925781 L 160.09375 336.925781 C 156.335938 336.925781 152.65625 336.792969 149.167969 336.53125 C 117.699219 334.183594 100.660156 324.894531 85.617188 316.695312 C 70.804688 308.621094 56.816406 300.996094 32.601562 300.996094 C 21.570312 300.996094 9.089844 302.558594 -5.46875 305.730469 L -5.46875 308.375 C 9.144531 305.15625 21.617188 303.582031 32.601562 303.582031 C 56.15625 303.582031 69.238281 310.710938 84.386719 318.96875 C 99.652344 327.289062 116.953125 336.71875 148.972656 339.109375 C 152.527344 339.375 156.269531 339.507812 160.09375 339.507812 L 160.101562 339.507812 C 172.148438 339.507812 186.210938 338.136719 201.003906 335.007812 C 187.144531 337.980469 173.261719 339.542969 160.179688 339.542969 C 156.351562 339.542969 152.582031 339.40625 148.972656 339.136719 C 116.941406 336.746094 99.636719 327.3125 84.367188 318.992188 C 69.570312 310.925781 56.171875 303.621094 32.539062 303.621094 C 22.171875 303.621094 9.820312 305.035156 -5.46875 308.398438 L -5.46875 311.046875 C 44.144531 300.019531 62.222656 309.863281 83.132812 321.261719 Z M 333.597656 142.058594 C 330.199219 131.03125 326.042969 121.03125 321.058594 112.011719 C 326.042969 120.996094 330.214844 130.984375 333.625 142.050781 C 337.917969 155.984375 339.371094 171.1875 337.945312 187.234375 C 336.644531 201.84375 333.007812 216.828125 327.132812 231.769531 C 316.421875 259.023438 298.710938 284.300781 279.757812 299.390625 C 276.085938 302.316406 272.195312 305.117188 268.109375 307.78125 C 272.089844 305.167969 275.976562 302.367188 279.742188 299.367188 C 314.1875 271.941406 352.070312 202.015625 333.597656 142.058594 Z M 597.378906 553.304688 C 589.808594 548.820312 578.125 554.035156 558.328125 570.726562 C 554.144531 574.253906 552.484375 579.003906 553.648438 584.101562 C 555.167969 590.746094 561.371094 596.707031 568.730469 598.597656 C 570.105469 598.949219 571.867188 599.246094 573.882812 599.246094 C 578.738281 599.246094 585.09375 597.519531 591.183594 590.671875 C 602.222656 578.257812 606.917969 568.972656 605.539062 562.277344 C 604.753906 558.457031 602.082031 555.519531 597.378906 553.304688 Z M 589.230469 588.933594 C 581.53125 597.59375 573.488281 597.117188 569.382812 596.066406 C 562.929688 594.410156 557.507812 589.25 556.195312 583.515625 C 555.535156 580.621094 555.660156 576.394531 560.015625 572.722656 C 574.765625 560.289062 584.8125 554.390625 591.511719 554.390625 C 593.257812 554.390625 594.777344 554.792969 596.089844 555.582031 L 596.210938 555.644531 C 600.152344 557.488281 602.367188 559.832031 602.980469 562.804688 C 604.164062 568.554688 599.539062 577.34375 589.230469 588.933594 Z M 614.667969 533.207031 C 606.070312 528.890625 597.910156 527.972656 588.984375 530.320312 C 581.101562 532.390625 573.550781 536.78125 565.550781 541.425781 C 560.296875 544.480469 554.859375 547.636719 548.972656 550.359375 C 536.566406 556.09375 528.648438 565.328125 526.671875 576.363281 C 525.003906 585.675781 526.828125 600.605469 544.980469 618.828125 C 553.449219 627.324219 562.285156 631.625 571.273438 631.625 C 571.640625 631.625 572.007812 631.617188 572.375 631.605469 C 580.464844 631.289062 588.664062 627.613281 597.4375 620.371094 C 605.179688 613.980469 612.21875 605.71875 617.355469 599.683594 C 623.519531 592.449219 637.457031 573.667969 633.796875 555.605469 C 631.878906 546.152344 625.445312 538.617188 614.667969 533.207031 Z M 615.367188 597.988281 C 604.46875 610.789062 589.539062 628.316406 572.273438 628.992188 C 563.660156 629.335938 555.109375 625.289062 546.832031 616.980469 C 533.09375 603.191406 527.011719 589.304688 529.246094 576.824219 C 531.066406 566.652344 538.460938 558.097656 550.066406 552.734375 C 556.070312 549.960938 561.558594 546.769531 566.863281 543.6875 C 577.683594 537.398438 587.480469 531.707031 598.285156 531.707031 C 603.09375 531.707031 608.105469 532.835938 613.492188 535.542969 C 623.515625 540.574219 629.484375 547.5 631.234375 556.125 C 634.667969 573.0625 621.28125 591.042969 615.367188 597.988281 Z M 648.113281 513.921875 C 631.535156 498.199219 611.949219 493.308594 595.71875 500.835938 C 583.269531 506.609375 571.78125 511.953125 561.804688 516.59375 C 542.304688 525.664062 528.214844 532.21875 524.558594 533.785156 C 506.929688 541.347656 495.015625 553.507812 490.101562 568.953125 C 484.769531 585.71875 488.183594 604.75 499.96875 623.988281 C 510.351562 640.9375 529.09375 655.527344 550.105469 663.023438 C 559.972656 666.542969 570.101562 668.386719 579.535156 668.386719 C 580.132812 668.386719 580.734375 668.378906 581.328125 668.363281 C 592.160156 668.089844 601.871094 665.4375 610.199219 660.476562 C 627.382812 650.238281 646.042969 619.558594 667.253906 566.675781 C 670.238281 559.234375 669.777344 550.003906 665.917969 539.984375 C 662.328125 530.664062 656.003906 521.40625 648.113281 513.921875 Z M 664.828125 565.703125 C 659.417969 579.195312 651.066406 599.253906 641.0625 617.640625 C 629.621094 638.660156 618.785156 652.316406 608.863281 658.230469 C 593.53125 667.363281 572.433594 668.214844 550.984375 660.5625 C 530.515625 653.261719 512.277344 639.078125 502.199219 622.625 C 490.820312 604.050781 487.496094 585.765625 492.59375 569.746094 C 497.269531 555.046875 508.679688 543.441406 525.589844 536.1875 C 529.28125 534.605469 543.382812 528.042969 562.90625 518.964844 C 572.882812 514.320312 584.371094 508.980469 596.816406 503.207031 C 612.042969 496.144531 630.542969 500.859375 646.316406 515.820312 C 662.484375 531.15625 670.269531 552.136719 664.828125 565.703125 Z M 623.148438 722.898438 C 611.03125 733.457031 595.472656 739.039062 578.144531 739.039062 C 575.351562 739.039062 572.496094 738.890625 569.664062 738.59375 C 552.652344 736.8125 535.113281 729.960938 517.535156 718.234375 C 497.996094 705.195312 478.914062 686.398438 460.820312 662.363281 C 449.257812 647.007812 441.179688 632.164062 436.8125 618.25 C 432.90625 605.800781 431.863281 593.757812 433.710938 582.464844 C 436.140625 567.644531 443.328125 554.050781 455.679688 540.902344 C 457.273438 539.207031 458.914062 537.589844 460.574219 536.007812 C 448.191406 547.875 436.894531 563.21875 433.742188 582.46875 C 429.824219 606.378906 438.941406 633.253906 460.84375 662.347656 C 495.007812 707.726562 533.65625 734.796875 569.667969 738.5625 C 572.5 738.859375 575.351562 739.011719 578.140625 739.011719 L 578.144531 739.011719 C 595.464844 739.011719 611.019531 733.429688 623.128906 722.875 C 639.738281 708.398438 653.046875 690.90625 666.367188 664.3125 C 664.398438 668.261719 662.445312 671.992188 660.496094 675.5 C 649.476562 695.371094 637.957031 709.988281 623.148438 722.898438 Z M 460.902344 535.695312 C 461.695312 534.941406 462.488281 534.199219 463.285156 533.476562 C 462.484375 534.203125 461.691406 534.945312 460.902344 535.695312 Z M 680.355469 480.105469 C 677.417969 477.300781 674.332031 474.78125 671.109375 472.550781 C 674.371094 474.792969 677.46875 477.308594 680.375 480.085938 C 683.1875 482.773438 685.789062 485.667969 688.167969 488.753906 C 685.796875 485.707031 683.191406 482.816406 680.355469 480.105469 Z M 562.703125 480.246094 C 574.105469 476.101562 587.023438 471.398438 602.082031 465.414062 C 606.988281 463.464844 611.988281 462.027344 617.023438 461.101562 C 612.039062 462.03125 607.042969 463.476562 602.09375 465.441406 C 587.023438 471.433594 574.109375 476.128906 562.703125 480.277344 C 535.109375 490.3125 515.171875 497.566406 488.875 513.902344 L 488.828125 513.933594 C 485.925781 515.921875 482.597656 518.203125 479.050781 520.78125 C 482.394531 518.34375 485.6875 516.050781 488.835938 513.894531 C 515.15625 497.539062 535.097656 490.285156 562.703125 480.246094 Z M 705.332031 554.164062 C 704.394531 563.859375 702.195312 573.796875 698.761719 583.726562 C 693.707031 598.351562 688.914062 611.453125 684.308594 623.226562 C 688.917969 611.414062 693.6875 598.3125 698.734375 583.71875 C 702.203125 573.695312 704.386719 563.777344 705.332031 554.164062 Z M 465.347656 531.636719 C 465.652344 531.367188 465.960938 531.101562 466.265625 530.835938 C 465.960938 531.101562 465.652344 531.371094 465.347656 531.636719 Z M 682.160156 478.21875 C 671.722656 468.242188 658.886719 461.5 645.039062 458.714844 C 630.65625 455.828125 615.472656 457.3125 601.128906 463.011719 C 586.105469 468.984375 573.203125 473.675781 561.820312 477.816406 C 534.070312 487.910156 514.019531 495.203125 487.445312 511.714844 L 487.375 511.761719 C 476.703125 519.070312 464.433594 527.816406 453.796875 539.132812 C 441.078125 552.667969 433.675781 566.707031 431.164062 582.046875 C 429.246094 593.742188 430.316406 606.183594 434.347656 619.023438 C 438.804688 633.222656 447.015625 648.328125 458.757812 663.917969 C 477.023438 688.183594 496.316406 707.183594 516.101562 720.382812 C 534.03125 732.347656 551.960938 739.339844 569.394531 741.164062 C 572.316406 741.46875 575.261719 741.625 578.144531 741.625 C 596.105469 741.625 612.253906 735.824219 624.847656 724.84375 C 639.894531 711.730469 651.585938 696.898438 662.757812 676.753906 C 674.667969 655.277344 686.886719 625.988281 701.207031 584.570312 C 708.550781 563.335938 710.34375 542.03125 706.394531 522.96875 C 702.746094 505.355469 694.363281 489.882812 682.160156 478.21875 Z M 578.144531 739.039062 C 575.351562 739.039062 572.496094 738.890625 569.664062 738.59375 C 552.652344 736.8125 535.113281 729.960938 517.535156 718.234375 C 497.996094 705.195312 478.914062 686.398438 460.820312 662.363281 C 449.257812 647.007812 441.179688 632.164062 436.8125 618.25 C 432.90625 605.800781 431.863281 593.757812 433.710938 582.464844 C 436.140625 567.644531 443.328125 554.050781 455.679688 540.902344 C 457.273438 539.207031 458.914062 537.589844 460.574219 536.007812 C 448.191406 547.875 436.894531 563.21875 433.742188 582.46875 C 429.824219 606.378906 438.941406 633.253906 460.84375 662.347656 C 495.007812 707.726562 533.65625 734.796875 569.667969 738.5625 C 572.5 738.859375 575.351562 739.011719 578.140625 739.011719 L 578.144531 739.011719 C 595.464844 739.011719 611.019531 733.429688 623.128906 722.875 C 639.738281 708.398438 653.046875 690.90625 666.367188 664.3125 C 664.398438 668.261719 662.445312 671.992188 660.496094 675.5 C 649.476562 695.371094 637.957031 709.988281 623.148438 722.898438 C 611.03125 733.457031 595.472656 739.039062 578.144531 739.039062 Z M 680.375 480.085938 C 683.1875 482.773438 685.789062 485.667969 688.167969 488.753906 C 685.796875 485.707031 683.191406 482.816406 680.355469 480.105469 C 677.417969 477.300781 674.332031 474.78125 671.109375 472.550781 C 674.371094 474.792969 677.46875 477.308594 680.375 480.085938 Z M 696.292969 582.875 C 669.351562 660.789062 650.460938 695.625 621.433594 720.925781 C 609.796875 731.066406 594.828125 736.425781 578.140625 736.425781 C 575.441406 736.425781 572.679688 736.28125 569.9375 735.992188 C 534.648438 732.300781 496.636719 705.59375 462.910156 660.792969 C 441.449219 632.285156 432.492188 606.074219 436.292969 582.886719 C 441.796875 549.296875 473.3125 527.695312 490.261719 516.082031 C 516.320312 499.898438 536.148438 492.6875 563.597656 482.703125 C 575.007812 478.550781 587.941406 473.847656 603.046875 467.84375 C 629.90625 457.171875 658.136719 462.453125 678.566406 481.976562 C 703.332031 505.640625 709.957031 543.359375 696.292969 582.875 Z M 617.023438 461.101562 C 612.039062 462.03125 607.042969 463.476562 602.09375 465.441406 C 587.023438 471.433594 574.109375 476.128906 562.703125 480.277344 C 535.109375 490.3125 515.171875 497.566406 488.875 513.902344 L 488.828125 513.933594 C 485.925781 515.921875 482.597656 518.203125 479.050781 520.78125 C 482.394531 518.34375 485.6875 516.050781 488.835938 513.894531 C 515.15625 497.539062 535.097656 490.285156 562.703125 480.246094 C 574.105469 476.101562 587.023438 471.398438 602.082031 465.414062 C 606.988281 463.464844 611.988281 462.027344 617.023438 461.101562 Z M 466.265625 530.835938 C 465.960938 531.101562 465.652344 531.367188 465.347656 531.636719 C 465.652344 531.371094 465.960938 531.101562 466.265625 530.835938 Z M 463.285156 533.476562 C 462.488281 534.199219 461.695312 534.941406 460.902344 535.695312 C 461.691406 534.945312 462.484375 534.203125 463.285156 533.476562 Z M 684.308594 623.226562 C 688.917969 611.414062 693.6875 598.3125 698.734375 583.71875 C 702.203125 573.695312 704.386719 563.777344 705.332031 554.164062 C 704.394531 563.859375 702.195312 573.796875 698.761719 583.726562 C 693.707031 598.351562 688.914062 611.453125 684.308594 623.226562 Z M 703.527344 437.300781 C 687.195312 424.484375 668.902344 415.304688 650.628906 410.757812 C 631.574219 406.015625 613.65625 406.664062 598.8125 412.628906 C 575.179688 422.125 559.613281 432.597656 544.558594 442.730469 C 525.339844 455.664062 508.742188 466.832031 479.527344 473.179688 C 478.992188 473.289062 457.179688 477.78125 433.113281 486.839844 C 418.851562 492.207031 406.585938 498.109375 396.667969 504.382812 C 384.167969 512.285156 375.347656 520.816406 370.445312 529.746094 C 356.40625 555.3125 358.757812 589.855469 377.246094 629.640625 C 395.554688 669.027344 428.777344 711.65625 473.324219 752.921875 C 500.363281 777.964844 523.710938 795.585938 544.710938 806.792969 C 563.304688 816.71875 580.007812 821.589844 595.523438 821.589844 C 597.890625 821.589844 600.234375 821.476562 602.550781 821.25 C 614.832031 820.046875 626.179688 815.734375 637.242188 808.058594 C 647.992188 800.597656 658.160156 790.171875 668.335938 776.175781 C 684.121094 754.460938 700.863281 729.53125 716.351562 694.464844 C 734.582031 653.191406 747.269531 606.355469 755.148438 551.289062 C 758.257812 529.53125 754.65625 507.898438 744.433594 486.996094 C 735.304688 468.320312 721.15625 451.136719 703.527344 437.300781 Z M 752.558594 550.917969 C 736.132812 665.75 701.355469 726.308594 666.21875 774.640625 C 646.339844 801.992188 625.429688 816.386719 602.296875 818.648438 C 600.097656 818.863281 597.871094 818.972656 595.609375 818.972656 C 563.503906 818.96875 524.945312 797.171875 475.097656 751.003906 C 430.800781 709.96875 397.78125 667.621094 379.617188 628.539062 C 361.492188 589.539062 359.113281 555.8125 372.734375 531.003906 C 381.175781 515.636719 402.359375 501.214844 434 489.296875 C 458.050781 480.242188 479.835938 475.785156 480.054688 475.738281 L 480.070312 475.734375 C 509.785156 469.28125 527.382812 457.4375 546.015625 444.898438 C 560.957031 434.84375 576.410156 424.445312 599.785156 415.050781 C 607.828125 411.820312 616.777344 410.253906 626.238281 410.253906 C 650.402344 410.253906 677.875 420.488281 701.914062 439.355469 C 739.410156 468.785156 758.34375 510.488281 752.558594 550.917969 Z M -5.46875 339.054688 L -5.46875 336.414062 C 2.144531 335.308594 10.144531 334.453125 19.140625 334.453125 C 23.699219 334.453125 28.507812 334.671875 33.644531 335.1875 C 56.3125 337.453125 81.898438 345.320312 111.875 359.242188 C 230.050781 414.117188 324.765625 311.046875 350.976562 278.148438 C 381.871094 239.378906 391.039062 184.675781 375.507812 131.8125 C 361.609375 84.523438 330.480469 47.53125 294.269531 35.273438 C 182.054688 -2.707031 92.238281 14.667969 -5.46875 48.644531 L -5.46875 45.796875 C 32.582031 32.507812 70.703125 21.320312 110.128906 15.527344 C 140.472656 11.070312 169.347656 10.046875 198.402344 12.398438 C 230.636719 15.011719 262.269531 21.683594 295.105469 32.796875 C 313.679688 39.082031 331.253906 51.777344 345.933594 69.511719 C 360.121094 86.644531 371.214844 107.933594 378.015625 131.078125 C 385.398438 156.207031 387.421875 182.566406 383.859375 207.300781 C 379.917969 234.660156 369.542969 259.042969 353.023438 279.777344 C 339.011719 297.359375 323.570312 313.167969 307.128906 326.765625 C 288.617188 342.070312 269.292969 354.144531 249.695312 362.648438 C 227.699219 372.199219 205.367188 377.21875 183.320312 377.574219 C 182.484375 377.585938 181.644531 377.59375 180.808594 377.59375 C 157.167969 377.59375 133.621094 372.222656 110.773438 361.613281 C 52.097656 334.363281 20.453125 335.28125 -5.46875 339.054688 Z M 9.003906 843.402344 C 5.195312 856.058594 0.332031 868.097656 -5.46875 879.351562 L -5.46875 873.667969 C -0.804688 863.957031 3.203125 853.605469 6.5 842.648438 C 16.480469 809.46875 18.785156 773.195312 12.988281 740.503906 C 9.5 720.832031 3.167969 703.140625 -5.46875 688.488281 L -5.46875 683.425781 C -3.105469 687.125 -0.886719 691.035156 1.167969 695.160156 C 7.792969 708.441406 12.632812 723.542969 15.5625 740.046875 C 21.425781 773.132812 19.097656 809.839844 9.003906 843.402344 Z M 795.027344 512.644531 C 781.46875 458.726562 743.96875 420.660156 705.460938 387.558594 C 690.304688 374.527344 673.65625 369.960938 653.070312 373.179688 C 634.628906 376.0625 614.492188 385.03125 593.171875 394.523438 C 565.433594 406.875 533.996094 420.871094 498.042969 425.5625 C 460.613281 430.445312 417.398438 438.5625 380.667969 461.753906 C 361.691406 473.734375 345.550781 489.152344 332.691406 507.574219 C 318.324219 528.160156 307.410156 553.386719 300.25 582.554688 C 293.476562 610.167969 302.519531 643.21875 327.128906 680.796875 C 347.765625 712.300781 378.792969 746.355469 419.355469 782.015625 C 452.214844 810.902344 491.375 840.589844 529.625 865.613281 C 562.839844 887.339844 593.253906 904.148438 610.992188 910.570312 C 619.382812 913.609375 626.796875 915.117188 633.445312 915.117188 C 636.007812 915.117188 638.457031 914.890625 640.804688 914.445312 C 648.882812 912.910156 655.980469 908.683594 662.492188 901.523438 C 674.859375 887.933594 684.296875 865.199219 697.359375 833.734375 C 709.25 805.09375 724.050781 769.449219 746.226562 729.179688 C 793.925781 642.570312 809.890625 571.742188 795.027344 512.644531 Z M 694.945312 832.734375 C 681.984375 863.953125 672.617188 886.511719 660.558594 899.765625 C 648.097656 913.460938 633.539062 915.957031 611.882812 908.113281 C 579.703125 896.460938 495.496094 845.472656 421.082031 780.050781 C 380.695312 744.546875 349.820312 710.671875 329.316406 679.363281 C 305.121094 642.417969 296.195312 610.054688 302.789062 583.179688 C 331.644531 465.59375 413.847656 439.179688 498.382812 428.152344 C 534.710938 423.414062 566.332031 409.335938 594.234375 396.914062 C 637.703125 377.558594 672.035156 362.269531 703.757812 389.539062 C 741.9375 422.363281 779.113281 460.070312 792.492188 513.28125 C 807.1875 571.707031 791.304688 641.914062 743.9375 727.917969 C 721.691406 768.3125 706.859375 804.03125 694.945312 832.734375 Z M 273.4375 895.890625 C 270.910156 907.136719 266.171875 918.484375 259.742188 929.117188 L 256.691406 929.117188 C 263.398438 918.34375 268.316406 906.773438 270.886719 895.320312 C 277.363281 866.492188 270.714844 831.019531 251.132812 789.886719 C 239.535156 765.523438 223.609375 739.710938 203.808594 713.167969 C 198.269531 705.746094 187.738281 699.863281 175.636719 697.433594 C 171.746094 696.652344 167.925781 696.265625 164.265625 696.265625 C 156.125 696.265625 148.777344 698.171875 143.222656 701.839844 C 133.5 708.265625 121.15625 725.859375 147.710938 771.527344 C 161.9375 795.988281 169.046875 817.003906 169.453125 835.773438 C 169.816406 852.597656 164.890625 866.144531 160.128906 879.242188 C 154.800781 893.890625 149.328125 908.972656 151 929.117188 L 148.371094 929.117188 C 146.699219 908.554688 152.261719 893.234375 157.671875 878.351562 C 167.390625 851.613281 176.574219 826.355469 145.453125 772.839844 C 134.519531 754.042969 129.027344 737.953125 129.128906 725.023438 C 129.214844 713.84375 133.589844 705.074219 141.78125 699.660156 C 150.40625 693.960938 162.933594 692.21875 176.148438 694.871094 C 188.867188 697.421875 199.988281 703.679688 205.902344 711.605469 C 225.808594 738.285156 241.820312 764.242188 253.496094 788.765625 C 273.335938 830.4375 280.042969 866.480469 273.4375 895.890625 Z M 462.1875 308.074219 C 467.242188 315.199219 472.863281 318.957031 479.371094 319.5625 C 480.007812 319.621094 480.65625 319.652344 481.3125 319.652344 C 487.933594 319.652344 495.511719 316.617188 504.949219 310.226562 C 514.144531 303.996094 525.515625 294.246094 540.738281 279.535156 C 562.363281 258.632812 568.121094 226.589844 556.535156 191.617188 C 550.214844 172.53125 539.117188 154.261719 525.292969 140.164062 C 510.941406 125.53125 494.4375 116.363281 478.816406 114.34375 C 470.496094 113.265625 465.773438 113.996094 463.511719 116.710938 C 460.398438 120.441406 462.441406 126.839844 465.53125 136.53125 C 471.371094 154.832031 480.191406 182.492188 464.480469 218.832031 C 447.53125 258.035156 446.800781 286.394531 462.1875 308.074219 Z M 475.632812 170.542969 C 474.617188 156.414062 470.804688 144.460938 468.023438 135.734375 C 465.296875 127.1875 463.328125 121.011719 465.519531 118.386719 C 467.101562 116.484375 471.34375 116.011719 478.480469 116.933594 C 493.523438 118.878906 509.484375 127.78125 523.429688 141.996094 C 536.980469 155.8125 547.855469 173.726562 554.054688 192.4375 C 565.3125 226.417969 559.796875 257.480469 538.921875 277.652344 C 513.53125 302.195312 493.726562 318.269531 479.613281 316.957031 C 473.910156 316.429688 468.90625 313.027344 464.316406 306.5625 C 449.511719 285.699219 450.328125 258.152344 466.878906 219.867188 C 473.972656 203.460938 476.835938 187.328125 475.632812 170.542969 Z M 21.402344 576.007812 C 10.726562 579.097656 0.917969 580.980469 -5.46875 582.019531 L -5.46875 579.375 C 0.847656 578.332031 10.371094 576.484375 20.714844 573.484375 C 37.375 568.65625 59.621094 559.785156 71.007812 544.941406 C 77.347656 536.675781 79.753906 527.292969 78.160156 517.054688 C 75.121094 497.523438 45.136719 483.464844 -0.09375 480.359375 C -1.878906 480.238281 -3.671875 480.140625 -5.46875 480.054688 L -5.46875 477.433594 C -3.613281 477.519531 -1.761719 477.625 0.0859375 477.75 C 21.59375 479.226562 40.351562 483.261719 54.332031 489.421875 C 69.90625 496.28125 79.039062 505.699219 80.746094 516.652344 C 82.453125 527.628906 79.875 537.679688 73.082031 546.535156 C 63.585938 558.910156 46.195312 568.828125 21.402344 576.007812 Z M -0.246094 612.847656 C -1.988281 612.886719 -3.730469 612.917969 -5.46875 612.9375 L -5.46875 610.3125 C -3.75 610.292969 -2.035156 610.273438 -0.308594 610.234375 C 61.277344 608.738281 101.738281 597.039062 119.945312 575.457031 C 134.460938 558.257812 131.601562 538.640625 129.894531 526.917969 L 129.78125 526.144531 C 126.777344 505.449219 114.949219 487.871094 95.574219 475.3125 C 72.390625 460.289062 38.429688 451.953125 -5.46875 450.480469 L -5.46875 447.863281 C 38.957031 449.347656 73.398438 457.824219 96.992188 473.121094 C 107.742188 480.085938 116.253906 488.503906 122.285156 498.132812 C 127.527344 506.503906 130.921875 515.800781 132.367188 525.769531 L 132.480469 526.542969 C 134.25 538.699219 137.21875 559.042969 121.945312 577.144531 C 113.367188 587.308594 99.988281 595.417969 82.175781 601.25 C 61.179688 608.128906 33.449219 612.027344 -0.246094 612.847656 Z M 52.007812 872.328125 C 44.308594 894.449219 35.988281 913.089844 26.59375 929.117188 L 23.578125 929.117188 C 34.765625 910.449219 42.855469 890.671875 49.539062 871.46875 C 71.136719 809.414062 30.78125 705.738281 17.519531 671.671875 C 17.050781 670.464844 16.613281 669.34375 16.214844 668.316406 C 14.484375 663.851562 14.597656 659.636719 16.546875 655.792969 C 23.242188 642.601562 50.125 635.390625 81.253906 627.042969 C 110.164062 619.289062 142.929688 610.5 159.503906 595.554688 C 167.726562 588.140625 172.21875 575.753906 172.492188 559.730469 C 173.066406 526.355469 155.542969 483.835938 131.726562 460.832031 C 123.167969 452.5625 108.378906 444.550781 88.953125 437.660156 C 69.359375 430.710938 46.003906 425.246094 21.40625 421.867188 C 13.90625 420.835938 4.796875 419.800781 -5.46875 419.050781 L -5.46875 416.445312 C 3.644531 417.097656 12.761719 418.039062 21.761719 419.277344 C 46.53125 422.683594 70.070312 428.1875 89.828125 435.199219 C 109.601562 442.210938 124.714844 450.425781 133.542969 458.949219 C 157.824219 482.40625 175.691406 525.753906 175.105469 559.777344 C 174.816406 576.542969 170.027344 589.585938 161.257812 597.496094 C 144.210938 612.863281 112.550781 621.351562 81.933594 629.566406 C 52.675781 637.414062 25.042969 644.824219 18.878906 656.972656 C 17.253906 660.171875 17.179688 663.574219 18.652344 667.371094 C 19.050781 668.398438 19.484375 669.519531 19.953125 670.722656 C 33.300781 705.015625 73.921875 809.363281 52.007812 872.328125 Z M 25.402344 359.085938 C 14.574219 360.382812 4.292969 361.203125 -5.46875 361.625 L -5.46875 359.003906 C 4.199219 358.582031 14.367188 357.777344 25.09375 356.492188 C 50.148438 353.496094 75.316406 364.5625 101.964844 376.28125 C 156.519531 400.273438 224.414062 430.136719 328.535156 355.226562 C 365.253906 328.808594 401.730469 299.320312 419.820312 262.75 C 437.933594 226.136719 436.695312 185.402344 415.921875 134.546875 C 371.273438 25.242188 342.652344 -19.273438 237.707031 -19.273438 C 137.242188 -19.273438 61.445312 -14.195312 18.082031 10.582031 C 11.503906 14.34375 3.542969 18.046875 -5.46875 21.816406 L -5.46875 18.984375 C 3.035156 15.398438 10.554688 11.875 16.785156 8.3125 C 60.648438 -16.75 136.824219 -21.886719 237.707031 -21.886719 C 264.46875 -21.886719 286.429688 -18.945312 304.839844 -12.886719 C 322.945312 -6.929688 338.261719 2.253906 351.664062 15.195312 C 364.132812 27.234375 375.21875 42.613281 386.558594 63.59375 C 398.121094 84.988281 409.113281 110.96875 418.34375 133.558594 C 429.25 160.257812 434.71875 183.960938 435.070312 206.015625 C 435.398438 226.753906 431.179688 245.6875 422.164062 263.910156 C 403.820312 300.992188 367.054688 330.734375 330.058594 357.351562 C 284.859375 389.867188 242.773438 405.722656 201.570312 405.722656 C 200.050781 405.722656 198.53125 405.703125 197.011719 405.660156 C 159.867188 404.601562 128.542969 390.828125 100.910156 378.671875 C 73.460938 366.601562 49.75 356.175781 25.402344 359.085938 Z M 67.851562 -51.011719 C 33.820312 -42.878906 14.257812 -36.75 -5.46875 -27.699219 L -5.46875 -30.582031 C 11.917969 -38.472656 29.371094 -44.167969 56.8125 -51.011719 Z M 1.617188 385.910156 C -0.6875 385.910156 -3.058594 385.828125 -5.46875 385.703125 L -5.46875 383.101562 C 2.792969 383.53125 10.464844 383.269531 17.195312 382.03125 C 37.136719 378.355469 57.429688 379.453125 79.230469 385.390625 C 98.628906 390.671875 117.46875 399.226562 135.691406 407.503906 C 163.375 420.078125 192 433.082031 223.777344 435.3125 C 274.023438 438.84375 308.328125 410.007812 341.503906 382.121094 C 361.234375 365.535156 381.632812 348.386719 405.105469 338.332031 C 436.953125 324.6875 459.027344 335.488281 476.761719 344.164062 C 485.996094 348.683594 493.96875 352.582031 501.941406 352.753906 C 510.613281 352.949219 518.417969 348.476562 526.488281 338.699219 C 538.160156 324.5625 549.371094 316.734375 559.261719 309.828125 C 570.21875 302.179688 578.875 296.136719 583.8125 284.339844 C 589.195312 271.476562 589.714844 252.742188 585.507812 223.59375 C 572.5625 133.972656 567.714844 100.441406 499.347656 80.574219 C 484.382812 76.222656 472.828125 73.546875 463.546875 71.394531 C 446.394531 67.421875 436.945312 65.234375 427.375 57.71875 C 417.65625 50.089844 408.011719 36.742188 392.519531 13.207031 C 375.820312 -12.160156 348.144531 -35.230469 311.554688 -51.011719 L 317.988281 -51.011719 C 350.949219 -35.84375 377.660156 -14.117188 394.703125 11.769531 C 426.539062 60.136719 430.820312 61.128906 464.136719 68.851562 C 473.449219 71.007812 485.042969 73.695312 500.078125 78.0625 C 534.632812 88.105469 553.566406 101.558594 565.4375 124.507812 C 577.085938 147.023438 581.703125 178.984375 588.09375 223.222656 C 592.375 252.863281 591.796875 272.023438 586.222656 285.347656 C 580.992188 297.84375 571.617188 304.390625 560.757812 311.972656 C 551.003906 318.78125 539.949219 326.503906 528.503906 340.363281 C 509.667969 363.175781 493.886719 355.453125 475.613281 346.511719 C 457.457031 337.628906 436.878906 327.5625 406.136719 340.734375 C 383.019531 350.636719 362.769531 367.660156 343.183594 384.121094 C 326.476562 398.167969 309.195312 412.691406 289.988281 423.019531 C 271.027344 433.21875 252.011719 438.222656 232.117188 438.222656 C 229.292969 438.222656 226.457031 438.121094 223.59375 437.921875 C 191.347656 435.65625 162.503906 422.554688 134.609375 409.882812 C 96.886719 392.75 61.261719 376.566406 17.671875 384.601562 C 12.746094 385.507812 7.355469 385.910156 1.617188 385.910156 Z M 483.972656 278.558594 C 486.757812 280.496094 490.136719 281.472656 493.953125 281.472656 C 496.125 281.472656 498.4375 281.15625 500.855469 280.519531 C 508.0625 278.632812 515.808594 274.09375 523.882812 267.035156 C 537.984375 254.710938 544.738281 239.105469 543.953125 220.644531 C 543.300781 205.261719 537.769531 190.824219 532.441406 178.730469 C 528.375 169.5 521.542969 160.46875 513.703125 153.953125 C 506.003906 147.554688 498.714844 144.808594 494.210938 146.605469 C 490.183594 148.214844 486.679688 153.738281 492.851562 170.921875 C 502.882812 198.835938 494.183594 216.519531 486.503906 232.121094 C 483.871094 237.46875 481.386719 242.523438 479.710938 247.75 C 474.558594 261.34375 476.191406 273.148438 483.972656 278.558594 Z M 482.167969 248.648438 L 482.191406 248.582031 C 483.804688 243.523438 486.257812 238.546875 488.851562 233.273438 C 496.757812 217.207031 505.71875 198.996094 495.3125 170.039062 C 491.105469 158.335938 491.058594 150.679688 495.179688 149.035156 C 495.8125 148.78125 496.535156 148.660156 497.335938 148.660156 C 501.039062 148.660156 506.40625 151.285156 512.035156 155.964844 C 519.574219 162.230469 526.140625 170.910156 530.050781 179.785156 C 541.65625 206.136719 551.253906 239.644531 522.164062 265.070312 C 510.621094 275.15625 501 278.808594 493.976562 278.808594 C 490.460938 278.808594 487.59375 277.894531 485.464844 276.414062 C 478.710938 271.714844 477.449219 261.078125 482.167969 248.648438 Z M 87.8125 860.171875 C 85.144531 885.410156 78.691406 908.492188 68.609375 929.117188 L 65.789062 929.117188 C 76.019531 908.535156 82.511719 885.445312 85.214844 859.894531 C 89.332031 820.953125 87.09375 787.949219 63.515625 725.1875 C 54.007812 699.886719 52.496094 683.507812 58.613281 672.085938 C 66.808594 656.785156 88.292969 651.800781 118.03125 644.902344 C 121.664062 644.058594 125.417969 643.1875 129.296875 642.265625 C 154.363281 636.296875 177.28125 619.789062 193.839844 595.78125 C 208.710938 574.21875 202.332031 524.035156 179 479.050781 C 155.460938 433.660156 104.628906 409.511719 67.359375 406.285156 C 55.394531 405.246094 27.121094 402.648438 -5.46875 398.625 L -5.46875 395.992188 C 27.207031 400.03125 55.597656 402.640625 67.585938 403.679688 C 88.179688 405.464844 110.324219 412.914062 129.933594 424.65625 C 152.519531 438.175781 170.289062 456.570312 181.320312 477.847656 C 192.839844 500.054688 200.671875 524.382812 203.375 546.34375 C 206.085938 568.347656 203.464844 586.429688 195.992188 597.265625 C 179.066406 621.804688 155.597656 638.6875 129.902344 644.808594 C 126.015625 645.734375 122.257812 646.605469 118.621094 647.449219 C 89.554688 654.191406 68.550781 659.066406 60.917969 673.316406 C 58.113281 678.558594 57.097656 685.007812 57.816406 693.035156 C 58.570312 701.476562 61.234375 711.691406 65.960938 724.269531 C 77.589844 755.222656 84.441406 779.925781 87.515625 802.007812 C 90.121094 820.691406 90.207031 837.542969 87.8125 860.171875 Z M 194.203125 458.09375 C 194.886719 456.710938 196.261719 455.902344 198.417969 455.621094 C 199.480469 455.484375 200.625 455.421875 201.859375 455.421875 C 207.230469 455.421875 214.207031 456.617188 222.617188 458.0625 C 251.3125 462.988281 294.683594 470.429688 330.039062 436.605469 C 333.488281 433.304688 336.808594 430.113281 340.011719 427.035156 L 340.140625 426.914062 C 368.238281 399.902344 386.800781 382.058594 406.644531 372.847656 C 426.800781 363.488281 447.488281 363.605469 478.046875 373.246094 C 485.457031 375.585938 492.84375 376.644531 500.140625 376.644531 C 527.941406 376.640625 554.289062 361.25 574.449219 342.566406 C 571.085938 345.710938 567.550781 348.761719 563.875 351.652344 C 550.707031 362.007812 537.195312 369.269531 523.71875 373.242188 C 508.007812 377.871094 492.640625 377.882812 478.039062 373.273438 C 447.488281 363.636719 426.804688 363.519531 406.65625 372.875 C 386.820312 382.082031 368.261719 399.921875 340.160156 426.933594 C 336.917969 430.050781 333.554688 433.28125 330.058594 436.628906 C 311.917969 453.980469 289.808594 462.417969 262.460938 462.417969 C 247.832031 462.417969 233.851562 460.019531 222.609375 458.089844 C 212.683594 456.386719 204.105469 454.914062 198.417969 455.652344 C 196.277344 455.929688 194.90625 456.730469 194.230469 458.105469 C 193.808594 458.964844 193.660156 460.015625 193.761719 461.261719 C 193.660156 460.015625 193.785156 458.949219 194.203125 458.09375 Z M 384.257812 -50.601562 C 384.164062 -50.738281 384.054688 -50.875 383.957031 -51.011719 L 383.992188 -51.011719 C 384.085938 -50.878906 384.191406 -50.75 384.28125 -50.617188 C 391.390625 -40.179688 398.042969 -31.046875 404.4375 -22.972656 C 397.960938 -31.125 391.296875 -40.265625 384.257812 -50.601562 Z M 113.222656 882.082031 C 113.476562 872.214844 113.175781 862.03125 112.320312 851.527344 C 108.082031 799.660156 96.824219 762.960938 88.601562 736.160156 C 83.15625 718.410156 79.222656 705.585938 79.738281 696.039062 C 80.265625 686.234375 85.839844 680.15625 97.816406 676.339844 C 105.320312 673.945312 114.914062 671.507812 125.070312 668.929688 C 150.132812 662.5625 181.328125 654.636719 205.457031 641.535156 C 216.632812 635.464844 225.375 628.808594 231.730469 621.488281 C 225.378906 628.84375 216.738281 635.441406 205.472656 641.558594 C 181.335938 654.664062 150.144531 662.589844 125.078125 668.957031 C 114.921875 671.539062 105.328125 673.976562 97.824219 676.367188 C 85.863281 680.179688 80.292969 686.246094 79.765625 696.039062 C 79.25 705.582031 83.183594 718.40625 88.628906 736.152344 C 96.851562 762.953125 108.113281 799.652344 112.347656 851.523438 C 113.203125 861.980469 113.492188 872.179688 113.222656 882.082031 Z M 193.765625 461.3125 C 193.796875 461.695312 193.859375 462.101562 193.941406 462.523438 C 193.859375 462.101562 193.796875 461.695312 193.765625 461.3125 Z M 607.324219 300.183594 C 608.597656 297.585938 609.640625 295.125 610.433594 292.847656 C 621.777344 260.214844 621.828125 210.621094 610.558594 166.5 C 606.535156 150.75 599.203125 128.582031 586.550781 108.296875 C 596.820312 124.679688 604.898438 144.234375 610.585938 166.492188 C 621.855469 210.621094 621.808594 260.222656 610.460938 292.855469 C 609.679688 295.097656 608.628906 297.558594 607.324219 300.183594 Z M 538.007812 64.105469 C 544.675781 66.953125 551.027344 70.652344 557.042969 75.183594 C 551.261719 70.84375 544.933594 67.09375 537.996094 64.132812 C 533.363281 62.15625 528.90625 60.265625 524.613281 58.449219 L 524.324219 58.324219 C 505.46875 50.335938 489.671875 43.644531 475.609375 36.441406 C 489.578125 43.570312 505.34375 50.253906 524.339844 58.300781 L 525.269531 58.695312 C 529.363281 60.429688 533.605469 62.226562 538.007812 64.105469 Z M 207.773438 490.339844 C 200.707031 478.226562 195.152344 468.683594 193.964844 462.667969 C 195.082031 468.289062 200.167969 477.246094 207.796875 490.328125 C 221.847656 514.417969 241.085938 547.410156 244.328125 582.863281 C 244.683594 586.773438 244.632812 590.574219 244.183594 594.261719 C 244.617188 590.59375 244.65625 586.796875 244.296875 582.867188 C 241.058594 547.417969 221.820312 514.429688 207.773438 490.339844 Z M -4.992188 -51.011719 C -5.148438 -50.929688 -5.308594 -50.847656 -5.46875 -50.761719 L -5.46875 -51.011719 Z M 114.921875 851.3125 C 110.664062 799.164062 99.355469 762.308594 91.101562 735.394531 C 85.734375 717.902344 81.855469 705.261719 82.347656 696.179688 C 82.820312 687.386719 87.53125 682.363281 98.609375 678.828125 C 106.039062 676.460938 115.59375 674.03125 125.714844 671.460938 C 150.917969 665.058594 182.285156 657.089844 206.703125 643.832031 C 220.308594 636.445312 230.207031 628.335938 236.972656 619.042969 C 244.785156 608.3125 248.125 596.058594 246.898438 582.628906 C 243.609375 546.601562 224.203125 513.324219 210.03125 489.023438 C 202.527344 476.160156 194.773438 462.863281 196.550781 459.246094 C 196.8125 458.71875 197.550781 458.371094 198.75 458.214844 C 204.054688 457.523438 212.449219 458.96875 222.183594 460.640625 C 233.511719 462.582031 247.609375 465.003906 262.460938 465 C 290.507812 465 313.203125 456.332031 331.84375 438.496094 C 335.339844 435.148438 338.707031 431.917969 341.960938 428.785156 C 369.863281 401.964844 388.296875 384.246094 407.746094 375.21875 C 427.246094 366.164062 447.386719 366.316406 477.261719 375.738281 C 492.363281 380.503906 508.238281 380.5 524.449219 375.71875 C 538.242188 371.65625 552.046875 364.242188 565.472656 353.683594 C 589.484375 334.800781 607.507812 309.21875 612.902344 293.707031 C 624.40625 260.625 624.476562 210.4375 613.089844 165.851562 C 606.863281 141.480469 597.792969 120.296875 586.121094 102.886719 C 573.011719 83.324219 557.164062 69.476562 539.023438 61.730469 C 534.617188 59.847656 530.375 58.050781 526.277344 56.3125 L 525.347656 55.917969 C 460.691406 28.523438 433.726562 17.089844 387.144531 -51.011719 L 383.992188 -51.011719 C 384.085938 -50.878906 384.191406 -50.75 384.28125 -50.617188 C 391.390625 -40.179688 398.042969 -31.046875 404.4375 -22.972656 C 397.960938 -31.125 391.296875 -40.265625 384.257812 -50.601562 C 384.164062 -50.738281 384.054688 -50.875 383.957031 -51.011719 L 380.746094 -51.011719 C 381.234375 -50.394531 381.695312 -49.773438 382.121094 -49.148438 C 405.328125 -15.074219 424.527344 6.148438 446.308594 21.808594 C 467.535156 37.070312 490.933594 46.984375 523.320312 60.707031 L 523.605469 60.828125 C 527.898438 62.644531 532.351562 64.53125 536.980469 66.511719 C 581.285156 85.425781 600.527344 137.675781 608.054688 167.136719 C 619.207031 210.804688 619.183594 259.8125 607.992188 291.996094 C 597.121094 323.257812 538.402344 389.578125 478.824219 370.78125 C 447.585938 360.925781 426.359375 360.847656 405.554688 370.503906 C 385.320312 379.898438 366.632812 397.859375 338.347656 425.046875 L 338.222656 425.171875 C 335.019531 428.25 331.699219 431.441406 328.25 434.738281 C 293.839844 467.660156 251.242188 460.351562 223.050781 455.515625 C 212.5 453.703125 204.164062 452.273438 198.085938 453.058594 C 195.046875 453.453125 192.964844 454.761719 191.886719 456.953125 C 188.878906 463.070312 195.148438 473.824219 205.539062 491.640625 C 219.464844 515.519531 238.535156 548.222656 241.722656 583.101562 C 243.820312 606.050781 231.554688 624.421875 204.222656 639.261719 C 180.378906 652.210938 149.359375 660.089844 124.433594 666.421875 C 114.238281 669.015625 104.609375 671.460938 97.03125 673.878906 C 83.878906 678.070312 77.75 684.863281 77.15625 695.898438 C 76.613281 705.90625 80.605469 718.914062 86.132812 736.921875 C 94.316406 763.605469 105.53125 800.152344 109.742188 851.738281 C 112.042969 879.890625 110.289062 905.734375 104.542969 929.117188 L 109.828125 929.117188 C 115.496094 905.4375 117.207031 879.289062 114.921875 851.3125 Z M 112.320312 851.527344 C 108.082031 799.660156 96.824219 762.960938 88.601562 736.160156 C 83.15625 718.410156 79.222656 705.585938 79.738281 696.039062 C 80.265625 686.234375 85.839844 680.15625 97.816406 676.339844 C 105.320312 673.945312 114.914062 671.507812 125.070312 668.929688 C 150.132812 662.5625 181.328125 654.636719 205.457031 641.535156 C 216.632812 635.464844 225.375 628.808594 231.730469 621.488281 C 225.378906 628.84375 216.738281 635.441406 205.472656 641.558594 C 181.335938 654.664062 150.144531 662.589844 125.078125 668.957031 C 114.921875 671.539062 105.328125 673.976562 97.824219 676.367188 C 85.863281 680.179688 80.292969 686.246094 79.765625 696.039062 C 79.25 705.582031 83.183594 718.40625 88.628906 736.152344 C 96.851562 762.953125 108.113281 799.652344 112.347656 851.523438 C 113.203125 861.980469 113.492188 872.179688 113.222656 882.082031 C 113.476562 872.214844 113.175781 862.03125 112.320312 851.527344 Z M 198.417969 455.621094 C 199.480469 455.484375 200.625 455.421875 201.859375 455.421875 C 207.230469 455.421875 214.207031 456.617188 222.617188 458.0625 C 251.3125 462.988281 294.683594 470.429688 330.039062 436.605469 C 333.488281 433.304688 336.808594 430.113281 340.011719 427.035156 L 340.140625 426.914062 C 368.238281 399.902344 386.800781 382.058594 406.644531 372.847656 C 426.800781 363.488281 447.488281 363.605469 478.046875 373.246094 C 485.457031 375.585938 492.84375 376.644531 500.140625 376.644531 C 527.941406 376.640625 554.289062 361.25 574.449219 342.566406 C 571.085938 345.710938 567.550781 348.761719 563.875 351.652344 C 550.707031 362.007812 537.195312 369.269531 523.71875 373.242188 C 508.007812 377.871094 492.640625 377.882812 478.039062 373.273438 C 447.488281 363.636719 426.804688 363.519531 406.65625 372.875 C 386.820312 382.082031 368.261719 399.921875 340.160156 426.933594 C 336.917969 430.050781 333.554688 433.28125 330.058594 436.628906 C 311.917969 453.980469 289.808594 462.417969 262.460938 462.417969 C 247.832031 462.417969 233.851562 460.019531 222.609375 458.089844 C 212.683594 456.386719 204.105469 454.914062 198.417969 455.652344 C 196.277344 455.929688 194.90625 456.730469 194.230469 458.105469 C 193.808594 458.964844 193.660156 460.015625 193.761719 461.261719 C 193.660156 460.015625 193.785156 458.949219 194.203125 458.09375 C 194.886719 456.710938 196.261719 455.902344 198.417969 455.621094 Z M 207.796875 490.328125 C 221.847656 514.417969 241.085938 547.410156 244.328125 582.863281 C 244.683594 586.773438 244.632812 590.574219 244.183594 594.261719 C 244.617188 590.59375 244.65625 586.796875 244.296875 582.867188 C 241.058594 547.417969 221.820312 514.429688 207.773438 490.339844 C 200.707031 478.226562 195.152344 468.683594 193.964844 462.667969 C 195.082031 468.289062 200.167969 477.246094 207.796875 490.328125 Z M 193.941406 462.523438 C 193.859375 462.101562 193.796875 461.695312 193.765625 461.3125 C 193.796875 461.695312 193.859375 462.101562 193.941406 462.523438 Z M 610.558594 166.5 C 606.535156 150.75 599.203125 128.582031 586.550781 108.296875 C 596.820312 124.679688 604.898438 144.234375 610.585938 166.492188 C 621.855469 210.621094 621.808594 260.222656 610.460938 292.855469 C 609.679688 295.097656 608.628906 297.558594 607.324219 300.183594 C 608.597656 297.585938 609.640625 295.125 610.433594 292.847656 C 621.777344 260.214844 621.828125 210.621094 610.558594 166.5 Z M 537.996094 64.132812 C 533.363281 62.15625 528.90625 60.265625 524.613281 58.449219 L 524.324219 58.324219 C 505.46875 50.335938 489.671875 43.644531 475.609375 36.441406 C 489.578125 43.570312 505.34375 50.253906 524.339844 58.300781 L 525.269531 58.695312 C 529.363281 60.429688 533.605469 62.226562 538.007812 64.105469 C 544.675781 66.953125 551.027344 70.652344 557.042969 75.183594 C 551.261719 70.84375 544.933594 67.09375 537.996094 64.132812 Z M 706.796875 926.535156 C 706.097656 927.414062 705.382812 928.269531 704.660156 929.117188 L 701.253906 929.117188 C 717.21875 911.238281 726.832031 885.527344 736.6875 849.179688 C 748.238281 806.566406 765.710938 775.339844 787.824219 735.808594 C 798.234375 717.203125 810.035156 696.113281 822.757812 671.050781 C 863.394531 591.015625 848.160156 540.011719 835.917969 499.027344 C 827.507812 470.875 807.617188 436.472656 784.007812 409.238281 C 763.539062 385.632812 731.050781 356.597656 692.507812 352.332031 C 646.582031 347.246094 613.9375 361.582031 554.683594 387.609375 L 549.765625 389.765625 C 517.394531 403.976562 493.828125 402.917969 471.039062 401.894531 C 451.25 401.003906 432.554688 400.164062 410.15625 410.121094 C 394.304688 417.167969 381.863281 429.707031 369.832031 441.832031 C 352.84375 458.953125 335.273438 476.660156 307.671875 479.746094 C 302.363281 480.339844 297.40625 480.8125 292.613281 481.265625 C 270.636719 483.355469 254.757812 484.867188 248.839844 494.835938 C 245.339844 500.722656 245.089844 509.5625 248.042969 522.652344 C 251.089844 536.132812 257.589844 554.304688 268.5 579.832031 C 279.78125 606.21875 278.988281 629.8125 266.210938 648.058594 C 252.316406 667.902344 225.039062 679.734375 193.96875 679.738281 C 191.722656 679.738281 189.457031 679.675781 187.175781 679.550781 C 183.105469 679.328125 179.0625 679.214844 175.050781 679.214844 C 162.175781 679.214844 149.625 680.363281 137.601562 682.640625 C 123.101562 685.390625 113.40625 691.699219 108.785156 701.386719 C 104.933594 709.457031 104.5 719.972656 107.5 732.640625 C 109.910156 742.8125 114.449219 754.148438 120.992188 766.324219 C 128.828125 780.910156 137.28125 798.539062 140.558594 818.722656 C 143.875 839.128906 141.6875 860.632812 133.875 884.464844 C 129.03125 899.238281 127.078125 914.207031 127.945312 929.117188 L 125.273438 929.117188 C 124.421875 913.9375 126.449219 898.722656 131.390625 883.648438 C 148.761719 830.667969 134.640625 797.25 118.691406 767.5625 C 107.96875 747.605469 97.136719 719.730469 106.425781 700.261719 C 111.425781 689.78125 121.75 682.988281 137.113281 680.074219 C 153.089844 677.042969 169.980469 675.992188 187.316406 676.941406 C 220.277344 678.75 249.683594 667.105469 264.070312 646.558594 C 276.300781 629.089844 277.003906 606.371094 266.097656 580.859375 C 255.121094 555.179688 248.574219 536.867188 245.496094 523.226562 C 242.382812 509.445312 242.730469 500 246.589844 493.5 C 253.191406 482.390625 269.625 480.828125 292.367188 478.664062 C 297.148438 478.210938 302.09375 477.738281 307.378906 477.148438 C 334.070312 474.164062 351.304688 456.792969 367.976562 439.992188 C 380.175781 427.695312 392.792969 414.980469 409.09375 407.734375 C 432.058594 397.527344 451.050781 398.378906 471.15625 399.28125 C 493.648438 400.292969 516.902344 401.335938 548.714844 387.375 L 553.632812 385.214844 C 582.90625 372.359375 606.023438 362.203125 627.632812 355.910156 C 650.65625 349.199219 670.753906 347.292969 692.796875 349.734375 C 709.257812 351.558594 726.105469 358.03125 742.871094 368.980469 C 757.6875 378.65625 772.191406 391.625 785.980469 407.527344 C 809.820312 435.019531 829.914062 469.796875 838.421875 498.28125 C 845.523438 522.050781 851.890625 545.65625 851.832031 572.992188 C 851.761719 604.464844 843.015625 636.925781 825.089844 672.234375 C 812.34375 697.34375 800.53125 718.457031 790.105469 737.085938 C 768.078125 776.460938 750.679688 807.558594 739.210938 849.867188 C 730.085938 883.515625 721.480469 908.082031 706.796875 926.535156 Z M 530.386719 929.117188 L 525.714844 929.117188 C 503.039062 913.730469 481.179688 894.253906 462.6875 872.75 C 427.179688 831.464844 350.308594 746.257812 322.628906 719.214844 C 309.773438 706.660156 294.125 698.054688 278.558594 694.988281 C 264.265625 692.171875 251.886719 694.359375 244.597656 700.988281 C 239.214844 705.890625 237.042969 712.988281 238.324219 721.523438 C 239.816406 731.480469 245.761719 742.949219 255.988281 755.609375 C 259.367188 759.789062 262.746094 763.933594 266.019531 767.941406 C 299.273438 808.695312 327.996094 843.894531 323.839844 882.695312 C 322.234375 897.6875 318.179688 913.652344 312.152344 929.117188 L 309.324219 929.117188 C 315.613281 913.136719 319.691406 896.882812 321.242188 882.417969 C 325.28125 844.699219 296.878906 809.894531 263.992188 769.59375 C 260.722656 765.585938 257.335938 761.4375 253.957031 757.253906 C 243.429688 744.222656 237.300781 732.332031 235.738281 721.910156 C 234.324219 712.472656 236.777344 704.570312 242.839844 699.054688 C 250.746094 691.863281 263.949219 689.445312 279.066406 692.421875 C 295.121094 695.589844 311.242188 704.441406 324.453125 717.347656 C 352.179688 744.429688 429.132812 829.726562 464.667969 871.046875 C 483.886719 893.390625 506.757812 913.546875 530.386719 929.117188 Z M 974.660156 105.667969 L 974.660156 114.273438 C 974.230469 112.128906 973.667969 110.132812 972.960938 108.316406 C 971.296875 104.03125 968.179688 99.921875 963.695312 96.105469 C 955.261719 88.925781 945.324219 85.175781 935.042969 85.175781 C 932.171875 85.175781 929.269531 85.46875 926.367188 86.0625 C 911.789062 89.042969 899.265625 99.089844 892.019531 113.632812 C 865.726562 166.300781 844.460938 179.71875 817.535156 196.707031 C 809.875 201.539062 801.957031 206.535156 793.269531 212.828125 C 754.769531 240.730469 736.859375 259.238281 740.035156 267.839844 C 743.65625 277.648438 774.902344 275.984375 803.90625 273.65625 C 831.984375 271.402344 886.734375 253.238281 910.421875 238.320312 C 934.742188 223 954.5 198.832031 966.0625 170.269531 C 970.324219 159.734375 973.226562 149.082031 974.660156 139.273438 L 974.660156 152.429688 C 973.09375 158.625 971.027344 164.960938 968.484375 171.25 C 956.71875 200.316406 936.59375 224.921875 911.816406 240.53125 C 887.863281 255.617188 832.503906 273.984375 804.117188 276.261719 C 790.5625 277.351562 778.882812 278.035156 769.253906 278.035156 C 751.019531 278.035156 740.105469 275.578125 737.582031 268.746094 C 735.699219 263.640625 738.957031 256.65625 747.550781 247.394531 C 756.421875 237.828125 770.871094 225.832031 791.734375 210.714844 C 800.492188 204.367188 808.445312 199.351562 816.140625 194.496094 C 842.71875 177.726562 863.714844 164.480469 889.679688 112.464844 C 897.289062 97.199219 910.472656 86.644531 925.84375 83.5 C 939.929688 80.625 953.972656 84.394531 965.390625 94.113281 C 969.621094 97.714844 972.730469 101.59375 974.660156 105.667969 Z M 974.660156 23.734375 L 974.660156 26.484375 C 956.222656 20.367188 914.054688 12.152344 889.828125 53.238281 C 853.011719 115.679688 826.484375 140.804688 798.054688 165.023438 C 780.976562 179.574219 767.410156 194.867188 754.292969 209.660156 C 746.59375 218.34375 739.320312 226.542969 731.496094 234.460938 C 700.765625 265.550781 683.519531 284.9375 686.300781 292.023438 C 688.113281 296.652344 699.289062 297.144531 714.757812 297.824219 C 728.464844 298.425781 745.527344 299.175781 764.632812 302.945312 C 823.519531 314.570312 881.949219 298.207031 916.996094 279.015625 C 938.179688 267.414062 956.945312 251.839844 974.660156 230.988281 L 974.660156 234.96875 C 970.578125 239.65625 966.433594 244.078125 962.195312 248.261719 C 948.445312 261.835938 934.070312 272.644531 918.25 281.308594 C 899.234375 291.71875 875.8125 300.054688 852.296875 304.777344 C 836.546875 307.9375 820.945312 309.519531 805.617188 309.519531 C 791.527344 309.519531 777.667969 308.183594 764.125 305.511719 C 745.214844 301.777344 728.261719 301.035156 714.640625 300.433594 C 697.574219 299.683594 686.300781 299.191406 683.867188 292.976562 C 682.226562 288.796875 684.765625 282.847656 692.359375 273.082031 C 699.285156 264.179688 710.78125 251.703125 729.636719 232.625 C 737.414062 224.757812 744.664062 216.582031 752.335938 207.925781 C 765.515625 193.066406 779.140625 177.703125 796.359375 163.035156 C 824.605469 138.972656 850.96875 114 887.578125 51.910156 C 897.664062 34.800781 911.8125 24.179688 929.628906 20.332031 C 946.527344 16.6875 963.085938 19.980469 974.660156 23.734375 Z M 974.660156 -27.3125 L 974.660156 -24.691406 C 938.828125 -27.804688 872.023438 -20.207031 815.09375 61.496094 C 803.542969 78.078125 787.925781 102.855469 771.386719 129.089844 C 740.699219 177.785156 705.914062 232.972656 683.488281 257.695312 C 655.308594 288.753906 637.097656 310.496094 639.816406 315.644531 C 641.339844 318.527344 651.007812 317.191406 662.203125 315.644531 C 672.363281 314.242188 684.589844 312.550781 697.710938 312.550781 C 708.515625 312.550781 719.933594 313.695312 731.3125 317.089844 C 817.53125 342.792969 880.792969 340.4375 903.988281 338.230469 C 929.671875 335.789062 953.34375 327.9375 974.660156 316.601562 L 974.660156 319.597656 C 970.914062 321.558594 967.136719 323.402344 963.328125 325.101562 C 944.277344 333.625 924.394531 338.917969 904.234375 340.832031 C 896.957031 341.523438 887.226562 342.113281 875.15625 342.113281 C 863.238281 342.113281 849.039062 341.539062 832.667969 339.933594 C 799.148438 336.640625 764.796875 329.796875 730.566406 319.59375 C 705.910156 312.242188 680.855469 315.707031 662.558594 318.234375 C 648.417969 320.1875 639.882812 321.367188 637.503906 316.863281 C 634.339844 310.867188 644.632812 296.632812 681.550781 255.9375 C 703.824219 231.386719 738.542969 176.300781 769.175781 127.699219 C 785.730469 101.4375 801.363281 76.632812 812.949219 60 C 838.203125 23.757812 868.027344 -1.703125 901.589844 -15.667969 C 930.796875 -27.820312 957.132812 -28.804688 974.660156 -27.3125 Z M 840.523438 -36.273438 C 858.347656 -41.796875 874.75 -46.691406 889.882812 -51.011719 L 899.503906 -51.011719 C 881.976562 -46.117188 862.664062 -40.398438 841.296875 -33.777344 C 776.6875 -13.757812 761.3125 50.21875 753.921875 80.964844 C 753.269531 83.667969 752.65625 86.222656 752.085938 88.421875 C 748.625 101.777344 740.117188 125.816406 726.628906 153.238281 C 715.65625 175.546875 697.3125 208.191406 672.242188 237.027344 C 645.808594 267.4375 629.816406 287.808594 620.390625 303.085938 C 610.78125 318.65625 607.765625 329.441406 610.90625 337.019531 C 611.5625 338.605469 614.660156 339.308594 620.117188 339.101562 C 625.800781 338.890625 633.609375 337.738281 642.652344 336.40625 C 657.875 334.160156 676.496094 331.414062 695.628906 331.414062 C 708.191406 331.414062 720.96875 332.597656 733.15625 335.882812 C 773.710938 346.8125 880.304688 369.332031 932.894531 365.066406 C 946.667969 363.949219 960.800781 360.960938 974.660156 356.644531 L 974.660156 359.449219 C 961.832031 363.382812 947.75 366.480469 933.105469 367.671875 C 928.535156 368.042969 923.601562 368.210938 918.410156 368.210938 C 891.023438 368.210938 856.476562 363.523438 830.394531 359.195312 C 790.472656 352.566406 753.636719 344.109375 732.476562 338.40625 C 702.25 330.261719 668.023438 335.304688 643.03125 338.992188 C 622.96875 341.949219 610.855469 343.734375 608.488281 338.019531 C 604.957031 329.484375 607.941406 318.285156 618.167969 301.710938 C 627.671875 286.3125 643.742188 265.832031 670.269531 235.3125 C 718.238281 180.132812 743.765625 110.097656 749.554688 87.765625 C 750.121094 85.589844 750.730469 83.046875 751.378906 80.355469 C 758.882812 49.140625 774.496094 -15.816406 840.523438 -36.273438 Z M 434.472656 -51.011719 L 438.1875 -51.011719 C 468.277344 -21.085938 534.578125 29.988281 561.804688 48.53125 C 579.804688 60.796875 594.621094 81.691406 603.878906 97.0625 C 615.128906 115.738281 622.703125 133.648438 625.222656 143.117188 C 628.648438 155.988281 636.394531 188.933594 634.390625 216.847656 C 633.007812 236.074219 635.328125 241 637.519531 241.746094 C 639.078125 242.277344 642.378906 241.34375 649.226562 233.871094 C 655.1875 227.367188 662.898438 216.957031 672.796875 202.039062 C 702.738281 156.917969 716.347656 129.320312 724.796875 96.582031 C 726.589844 89.625 728.09375 80.84375 729.683594 71.550781 C 732.472656 55.242188 735.632812 36.761719 741.527344 20.339844 C 748.417969 1.15625 757.761719 -11.496094 770.097656 -18.34375 C 795.582031 -32.496094 808.90625 -39.65625 831.640625 -51.011719 L 837.5 -51.011719 C 811.835938 -38.261719 798.515625 -31.132812 771.363281 -16.058594 C 759.609375 -9.535156 750.652344 2.664062 743.988281 21.226562 C 738.167969 37.429688 735.027344 55.789062 732.257812 71.988281 C 730.660156 81.339844 729.148438 90.171875 727.328125 97.234375 C 718.796875 130.289062 705.097656 158.09375 674.972656 203.484375 C 652.21875 237.777344 643.273438 244.503906 638.371094 244.503906 C 637.746094 244.503906 637.1875 244.394531 636.671875 244.21875 C 631.972656 242.617188 630.507812 234.375 631.78125 216.660156 C 633.761719 189.140625 626.089844 156.53125 622.699219 143.789062 C 620.226562 134.5 612.757812 116.867188 601.640625 98.414062 C 592.515625 83.265625 577.945312 62.691406 560.332031 50.691406 C 544.847656 40.144531 513.859375 16.996094 484.589844 -6.832031 C 467.644531 -20.632812 447.59375 -37.640625 434.472656 -51.011719 Z M 498.523438 -46.769531 C 497.695312 -48.179688 496.863281 -49.59375 496.03125 -51.011719 L 499.0625 -51.011719 C 499.636719 -50.035156 500.207031 -49.0625 500.777344 -48.097656 C 504.839844 -41.195312 508.679688 -34.675781 511.554688 -28.652344 C 518.335938 -14.457031 532.570312 -4.277344 547.640625 6.5 C 561.3125 16.277344 575.453125 26.390625 587.070312 40.914062 C 600.125 57.238281 613.320312 77.902344 623.273438 97.605469 C 631.339844 113.585938 641.296875 136.863281 642.90625 157.023438 C 644.28125 174.242188 645.871094 186.507812 647.765625 194.515625 C 649.863281 203.371094 651.914062 205.042969 652.953125 205.253906 C 656.351562 205.941406 662.105469 194.8125 667.179688 184.992188 C 669.789062 179.949219 672.484375 174.730469 675.386719 169.816406 C 688.699219 148.160156 699.242188 119.984375 705.742188 100.160156 C 712.863281 78.445312 717.746094 58.859375 719.148438 51.617188 C 719.5 49.804688 720.023438 45.648438 720.6875 40.386719 C 723.617188 17.183594 729.074219 -26.011719 738.984375 -36.851562 C 740.828125 -38.867188 745.03125 -43.019531 750.355469 -48.28125 C 751.238281 -49.152344 752.167969 -50.070312 753.121094 -51.011719 L 756.835938 -51.011719 C 755.207031 -49.394531 753.644531 -47.855469 752.191406 -46.421875 C 746.894531 -41.1875 742.710938 -37.054688 740.914062 -35.089844 C 731.5625 -24.859375 725.96875 19.429688 723.28125 40.714844 C 722.585938 46.230469 722.082031 50.214844 721.714844 52.113281 C 720.296875 59.417969 715.386719 79.144531 708.226562 100.972656 C 701.683594 120.933594 691.058594 149.3125 677.625 171.164062 C 674.773438 175.996094 672.09375 181.179688 669.5 186.195312 C 663.042969 198.6875 658.285156 207.894531 653.257812 207.898438 C 652.984375 207.898438 652.710938 207.871094 652.4375 207.816406 C 649.382812 207.199219 647.15625 203.285156 645.222656 195.117188 C 643.296875 186.980469 641.683594 174.585938 640.300781 157.230469 C 637.648438 123.996094 610.488281 74.378906 585.027344 42.546875 C 573.636719 28.304688 559.648438 18.300781 546.117188 8.625 C 530.765625 -2.351562 516.265625 -12.722656 509.199219 -27.527344 C 506.371094 -33.449219 502.558594 -39.917969 498.523438 -46.769531 Z M 594.386719 -41.554688 C 598.371094 -45.332031 603.054688 -48.5 608.292969 -51.011719 L 615.003906 -51.011719 C 607.777344 -48.417969 601.4375 -44.636719 596.1875 -39.65625 C 585.585938 -29.605469 581.035156 -15.957031 584.304688 -4.035156 C 588.496094 11.226562 602.058594 30.28125 615.171875 48.703125 C 625.480469 63.183594 636.136719 78.15625 642.410156 91.472656 C 651.480469 110.722656 654.203125 127.820312 656.195312 140.308594 C 658.265625 153.304688 659.429688 159.289062 664.257812 159.289062 C 664.433594 159.289062 664.609375 159.28125 664.796875 159.265625 C 667.738281 159.015625 673.746094 154.652344 680.929688 128.257812 C 685.75 110.546875 689.28125 89.316406 690.980469 75.355469 L 691.019531 75.03125 C 694.570312 45.867188 694.859375 43.484375 706.878906 12.898438 C 712.734375 -2.007812 713.109375 -15.699219 707.960938 -26.703125 C 703.371094 -36.511719 694.5625 -43.816406 682.480469 -47.832031 C 678.839844 -49.042969 675.25 -50.101562 671.71875 -51.011719 L 681.125 -51.011719 C 681.851562 -50.78125 682.574219 -50.554688 683.304688 -50.3125 C 696.082031 -46.0625 705.429688 -38.285156 710.328125 -27.8125 C 715.789062 -16.140625 715.4375 -1.734375 709.3125 13.851562 C 697.414062 44.128906 697.125 46.488281 693.613281 75.347656 L 693.574219 75.671875 C 691.867188 89.722656 688.308594 111.097656 683.449219 128.941406 C 677.570312 150.542969 671.542969 161.3125 665.019531 161.867188 C 664.730469 161.894531 664.449219 161.90625 664.179688 161.90625 C 656.988281 161.90625 655.632812 153.382812 653.613281 140.71875 C 651.648438 128.386719 648.957031 111.5 640.046875 92.585938 C 633.871094 79.484375 623.28125 64.605469 613.042969 50.21875 C 599.796875 31.609375 586.097656 12.367188 581.785156 -3.34375 C 580.105469 -9.464844 580.332031 -16.214844 582.4375 -22.863281 C 584.621094 -29.746094 588.753906 -36.210938 594.386719 -41.554688 Z M 415.5625 856.007812 C 435.277344 881.027344 455.230469 906.347656 476.765625 929.117188 L 473.167969 929.117188 C 452.21875 906.746094 432.75 882.042969 413.507812 857.628906 C 403.09375 844.40625 392.320312 830.738281 381.59375 817.828125 C 360.660156 792.628906 309.472656 732.597656 286.359375 719.417969 C 280.273438 715.949219 275.210938 715.71875 272.8125 718.804688 C 270.457031 721.828125 270.808594 727.65625 273.773438 734.792969 C 277.453125 743.652344 284.902344 754.046875 295.3125 764.851562 C 313.988281 784.234375 329.132812 808.675781 339.117188 835.535156 C 347.621094 858.417969 352.003906 881.886719 351.457031 901.617188 C 351.191406 911.183594 350.371094 920.359375 349.019531 929.117188 L 346.402344 929.117188 C 347.726562 920.582031 348.570312 911.414062 348.84375 901.542969 C 349.882812 864.117188 333.152344 807.894531 293.433594 766.667969 C 270.054688 742.402344 265.195312 724.339844 270.75 717.199219 C 274.019531 712.996094 280.335938 712.976562 287.652344 717.144531 C 311.140625 730.539062 362.578125 790.847656 383.605469 816.15625 C 394.351562 829.09375 405.132812 842.777344 415.5625 856.007812 Z M 974.660156 380.632812 L 974.660156 383.316406 C 961.667969 385.425781 949.277344 387.035156 937.570312 388.121094 C 902.519531 391.363281 873.425781 389.949219 851.101562 383.917969 C 842.523438 381.570312 830.671875 377.660156 818.121094 373.515625 C 805.980469 369.507812 793.425781 365.363281 783.515625 362.550781 C 770.039062 358.730469 766.625 358.914062 765.769531 359.214844 C 765.792969 359.265625 765.824219 359.332031 765.867188 359.410156 C 767.738281 362.777344 780.808594 378.296875 795.941406 396.269531 C 817.214844 421.535156 843.6875 452.972656 854.394531 468.753906 C 866.59375 486.738281 875.355469 505.992188 880.445312 525.976562 C 884.847656 543.28125 886.640625 561.765625 885.773438 580.917969 C 884.179688 616.183594 874.066406 648.316406 865.941406 674.132812 C 863.683594 681.300781 861.554688 688.070312 859.824219 694.222656 C 854.101562 714.585938 838.980469 734.246094 822.972656 755.058594 C 810.117188 771.773438 796.820312 789.058594 789.132812 806.484375 C 774.996094 838.511719 767.09375 869.589844 760.121094 897.003906 C 757.152344 908.671875 754.414062 919.433594 751.5 929.117188 L 748.769531 929.117188 C 751.75 919.292969 754.546875 908.308594 757.585938 896.359375 C 764.585938 868.84375 772.519531 837.65625 786.742188 805.429688 C 794.558594 787.714844 807.949219 770.304688 820.902344 753.464844 C 836.75 732.855469 851.722656 713.390625 857.308594 693.515625 C 859.046875 687.324219 861.183594 680.535156 863.445312 673.347656 C 879.421875 622.59375 903.5625 545.894531 852.230469 470.222656 C 841.601562 454.554688 815.175781 423.171875 793.941406 397.953125 C 778.09375 379.132812 765.574219 364.265625 763.582031 360.675781 C 762.699219 359.089844 763.214844 358.070312 763.597656 357.605469 C 764.691406 356.285156 767.222656 355.261719 783.539062 359.84375 C 793.609375 362.671875 806.488281 366.921875 818.941406 371.035156 C 831.457031 375.164062 843.273438 379.066406 851.785156 381.394531 C 885.824219 390.59375 931.675781 387.605469 974.660156 380.632812 Z M 414.171875 879.609375 C 428.984375 900.140625 442.054688 918.25 450.484375 929.117188 L 447.183594 929.117188 C 438.707031 918.078125 426.171875 900.707031 412.050781 881.140625 C 387.933594 847.714844 360.601562 809.835938 342.558594 788.300781 C 334.761719 778.996094 329.367188 772.847656 326.445312 769.933594 C 328.25 773.839844 332.179688 781.003906 336.273438 788.472656 C 350.011719 813.539062 373.011719 855.5 379.890625 886.273438 C 383.253906 901.332031 385.410156 915.621094 386.367188 929.117188 L 383.773438 929.117188 C 382.84375 916.289062 380.78125 902.242188 377.339844 886.84375 C 370.542969 856.429688 347.65625 814.675781 333.980469 789.726562 C 330.472656 783.328125 327.445312 777.804688 325.476562 773.90625 C 322.589844 768.191406 322.203125 766.578125 323.496094 765.695312 C 324.761719 764.828125 326.175781 765.765625 330.371094 770.253906 C 333.449219 773.546875 338.09375 778.902344 344.5625 786.621094 C 362.664062 808.230469 390.027344 846.152344 414.171875 879.609375 Z M 932.28125 411.683594 C 946.894531 411.683594 961.097656 410.699219 974.660156 409.105469 L 974.660156 411.738281 C 961.101562 413.324219 946.902344 414.300781 932.292969 414.300781 C 906.550781 414.300781 879.554688 411.292969 852.566406 403.335938 C 851.769531 403.101562 850.128906 402.550781 847.855469 401.789062 C 843.171875 400.21875 836.089844 397.84375 829.777344 396.015625 C 822.097656 393.792969 819.042969 393.417969 817.855469 393.417969 C 817.835938 393.417969 817.816406 393.417969 817.796875 393.417969 C 819.691406 397.457031 827.734375 403.90625 837.761719 411.949219 C 865.542969 434.226562 912.039062 471.511719 924.410156 530.105469 C 928.660156 550.242188 927.109375 579.28125 919.800781 616.414062 C 913.457031 648.652344 902.828125 686.253906 889.066406 725.15625 C 878.496094 755.039062 864.6875 771.328125 851.332031 787.085938 C 835.878906 805.316406 821.28125 822.535156 814.808594 859.257812 C 813.375 867.398438 811.984375 875.703125 810.640625 883.734375 C 808.035156 899.292969 805.46875 914.625 802.546875 929.117188 L 799.882812 929.117188 C 802.835938 914.515625 805.429688 899.023438 808.0625 883.304688 C 809.40625 875.269531 810.796875 866.957031 812.234375 858.804688 C 818.832031 821.386719 833.652344 803.902344 849.339844 785.394531 C 862.542969 769.820312 876.191406 753.714844 886.601562 724.285156 C 900.324219 685.5 910.914062 648.023438 917.234375 615.910156 C 924.476562 579.121094 926.027344 550.433594 921.851562 530.644531 C 909.675781 472.96875 863.632812 436.046875 836.125 413.988281 C 824.273438 404.480469 816.441406 398.199219 815.015625 393.449219 C 814.796875 392.722656 814.964844 392.019531 815.480469 391.519531 C 816.410156 390.621094 818.28125 390.015625 829.804688 393.304688 C 836.339844 395.171875 843.769531 397.664062 848.6875 399.3125 C 850.847656 400.035156 852.554688 400.609375 853.304688 400.832031 C 880.007812 408.703125 906.761719 411.683594 932.28125 411.683594 Z M 409.085938 901.921875 C 413.449219 909.902344 418.519531 919.179688 424.292969 929.117188 L 421.269531 929.117188 C 415.800781 919.652344 410.972656 910.824219 406.792969 903.171875 C 402.632812 895.566406 399.042969 888.996094 396.238281 884.449219 C 393.382812 879.820312 391.929688 878.292969 391.25 877.792969 C 391.40625 880.800781 393.542969 890.964844 395.789062 901.664062 C 397.488281 909.753906 399.460938 919.148438 401.40625 929.117188 L 398.742188 929.117188 C 396.832031 919.351562 394.898438 910.144531 393.230469 902.199219 C 388.449219 879.433594 388.035156 876.699219 389.214844 875.59375 C 389.761719 875.082031 390.472656 874.863281 391.210938 874.984375 C 394.535156 875.515625 398.828125 883.152344 409.085938 901.921875 Z M 974.660156 432.917969 L 974.660156 435.53125 C 951.730469 435.957031 926.542969 432 908.449219 429.152344 C 899.664062 427.769531 892.078125 426.574219 887.339844 426.296875 C 885.964844 426.214844 884.753906 426.902344 884.105469 428.132812 C 883.460938 429.351562 883.578125 430.722656 884.414062 431.804688 C 887.269531 435.484375 893.15625 439.789062 900.609375 445.238281 C 912.449219 453.894531 927.183594 464.664062 939.269531 479.734375 C 953.648438 497.664062 960.585938 517.082031 960.472656 539.101562 C 960.3125 570.179688 949.0625 633.3125 941.617188 675.085938 C 939.238281 688.429688 937.359375 698.96875 936.433594 705.199219 C 932.734375 730.082031 926.019531 751.703125 915.90625 771.300781 C 906.96875 788.621094 896.5625 802.269531 886.496094 815.472656 C 869.992188 837.121094 854.402344 857.566406 847.835938 891.066406 C 845.246094 904.28125 843.53125 917.046875 842.207031 929.117188 L 839.578125 929.117188 C 840.910156 916.90625 842.644531 903.976562 845.273438 890.5625 C 851.953125 856.464844 867.722656 835.785156 884.417969 813.886719 C 904.703125 787.28125 925.675781 759.769531 933.847656 704.8125 C 934.78125 698.550781 936.660156 687.992188 939.042969 674.628906 C 946.472656 632.941406 957.699219 569.941406 957.859375 539.085938 C 958.105469 490.507812 922.578125 464.535156 899.066406 447.347656 C 891.445312 441.777344 885.429688 437.378906 882.347656 433.40625 C 880.886719 431.519531 880.675781 429.035156 881.792969 426.914062 C 882.914062 424.78125 885.105469 423.542969 887.492188 423.6875 C 892.359375 423.972656 899.640625 425.117188 908.855469 426.570312 C 926.867188 429.402344 951.957031 433.347656 974.660156 432.917969 Z M 973.699219 597.34375 C 974.03125 596.398438 974.347656 595.457031 974.660156 594.527344 L 974.660156 602.597656 C 963.476562 635.960938 962.703125 656.222656 961.894531 677.613281 C 961.070312 699.34375 960.21875 721.8125 947.894531 759.34375 C 939.835938 783.882812 928.386719 802.769531 917.316406 821.035156 C 900.84375 848.203125 885.289062 873.867188 884.398438 913.839844 C 884.28125 919.050781 884.054688 924.140625 883.738281 929.117188 L 881.117188 929.117188 C 881.4375 924.125 881.667969 919.011719 881.785156 913.78125 C 882.691406 873.109375 898.421875 847.15625 915.078125 819.679688 C 926.074219 801.539062 937.445312 782.78125 945.410156 758.527344 C 957.621094 721.34375 958.464844 699.0625 959.28125 677.515625 C 960.132812 655 960.9375 633.730469 973.699219 597.34375 Z M 952.101562 449.625 C 960.125 447.203125 967.664062 445.703125 974.660156 445.109375 L 974.660156 447.730469 C 967.910156 448.320312 960.625 449.78125 952.855469 452.128906 C 950.800781 452.75 949.195312 454.222656 948.335938 456.277344 C 947.410156 458.480469 947.523438 461.0625 948.636719 463.179688 C 950.644531 467.003906 953.945312 471.230469 957.765625 476.125 C 963.167969 483.046875 969.417969 491.074219 974.660156 501.125 L 974.660156 506.992188 C 969.121094 494.925781 961.832031 485.582031 955.703125 477.730469 C 951.804688 472.738281 948.441406 468.425781 946.324219 464.398438 C 944.828125 461.554688 944.683594 458.226562 945.921875 455.265625 C 947.074219 452.519531 949.324219 450.464844 952.101562 449.625 Z M 653.160156 73.230469 C 658.054688 84.945312 658.929688 99.949219 659.570312 110.902344 C 660.246094 122.519531 660.652344 129.535156 664.90625 129.539062 L 664.910156 129.539062 C 671.085938 129.539062 675.742188 119.921875 679.148438 100.140625 C 682.269531 82.003906 683.230469 61.644531 683.449219 55.835938 C 684.453125 29.257812 685.664062 12.667969 686.007812 8.214844 C 686.554688 1.207031 683.640625 -9.488281 680.730469 -17.164062 C 679.28125 -20.980469 674.140625 -33.617188 668.761719 -35.882812 C 667.503906 -36.414062 663.667969 -38.027344 629.71875 -31.753906 C 623.191406 -30.550781 617.832031 -26.414062 615.003906 -20.414062 C 612.175781 -14.410156 612.410156 -7.640625 615.636719 -1.839844 C 632.207031 27.914062 644.480469 52.46875 653.160156 73.230469 Z M 617.371094 -19.300781 C 619.832031 -24.53125 624.503906 -28.132812 630.191406 -29.183594 C 660.144531 -34.71875 666.433594 -34.027344 667.746094 -33.476562 C 670.640625 -32.257812 674.777344 -25.488281 678.285156 -16.234375 C 681.816406 -6.925781 683.824219 2.59375 683.402344 8.011719 C 683.054688 12.476562 681.84375 29.109375 680.835938 55.734375 C 679.5 91.117188 673.601562 126.929688 664.910156 126.925781 C 664.75 126.921875 663.925781 126.738281 663.265625 123.078125 C 662.71875 120.066406 662.46875 115.75 662.179688 110.753906 C 661.527344 99.609375 660.640625 84.347656 655.570312 72.222656 C 646.855469 51.371094 634.539062 26.730469 617.921875 -3.109375 C 615.105469 -8.167969 614.90625 -14.066406 617.371094 -19.300781 Z M 971.789062 732.53125 C 971.8125 713.691406 971.84375 690.058594 974.660156 669.179688 L 974.660156 706.816406 C 974.425781 716.0625 974.414062 724.882812 974.402344 732.535156 C 974.390625 741.960938 974.382812 750.101562 973.980469 755.527344 C 970.121094 807.945312 954.113281 830.222656 938.628906 851.769531 C 934.757812 857.15625 931.101562 862.242188 927.613281 867.8125 C 920.832031 878.628906 913.71875 895.179688 910.78125 929.117188 L 908.160156 929.117188 C 908.632812 923.710938 909.214844 918.582031 909.925781 913.746094 C 912.875 893.597656 917.789062 878.5625 925.398438 866.425781 C 928.929688 860.785156 932.78125 855.425781 936.507812 850.242188 C 951.777344 828.992188 967.570312 807.019531 971.375 755.335938 C 971.769531 750.003906 971.777344 741.90625 971.789062 732.53125 Z M 960.609375 905.152344 C 965.230469 896.792969 970.332031 887.546875 974.660156 875.402344 L 974.660156 882.742188 C 970.875 891.96875 966.722656 899.492188 962.898438 906.417969 C 958.589844 914.214844 954.714844 921.234375 952.074219 929.117188 L 949.359375 929.117188 C 952.105469 920.550781 956.207031 913.121094 960.609375 905.152344 Z M 960.609375 905.152344 "/></g></g><mask id="48171c5d26"><g filter="url(#1b13f57c25)"><rect x="0" width="974.88" y="0" height="449.999984" style="fill:#000000;fill-opacity:0.17;stroke:none;"/></g></mask></g></g></g></svg>